<mxfile host="Electron" modified="2024-02-28T15:43:45.764Z" agent="Mozilla/5.0 (Windows NT 10.0; Win64; x64) AppleWebKit/537.36 (KHTML, like Gecko) draw.io/23.1.5 Chrome/120.0.6099.109 Electron/28.1.0 Safari/537.36" etag="PZq7RiGAP7MDSRt0eYAW" version="23.1.5" type="device">
  <diagram name="Página-1" id="9saRvEc7mQRmr7frv0BR">
    <mxGraphModel dx="2625" dy="1553" grid="1" gridSize="10" guides="1" tooltips="1" connect="1" arrows="1" fold="1" page="1" pageScale="1" pageWidth="827" pageHeight="1169" math="0" shadow="0">
      <root>
        <mxCell id="0" />
        <mxCell id="1" parent="0" />
        <mxCell id="ACXmvU2Bllc4FX8nDeVv-49" value="" style="endArrow=none;html=1;rounded=0;exitX=0.5;exitY=0;exitDx=0;exitDy=0;entryX=0.131;entryY=0.981;entryDx=0;entryDy=0;jumpSize=6;entryPerimeter=0;" edge="1" parent="1" source="ACXmvU2Bllc4FX8nDeVv-46" target="ACXmvU2Bllc4FX8nDeVv-39">
          <mxGeometry width="50" height="50" relative="1" as="geometry">
            <mxPoint x="600" y="540" as="sourcePoint" />
            <mxPoint x="650" y="490" as="targetPoint" />
            <Array as="points">
              <mxPoint x="520" y="490" />
              <mxPoint x="603" y="490" />
            </Array>
          </mxGeometry>
        </mxCell>
        <mxCell id="ACXmvU2Bllc4FX8nDeVv-2" value="Clientes" style="rounded=1;arcSize=10;whiteSpace=wrap;html=1;align=center;" vertex="1" parent="1">
          <mxGeometry x="160" y="130" width="100" height="40" as="geometry" />
        </mxCell>
        <mxCell id="ACXmvU2Bllc4FX8nDeVv-3" value="&lt;u&gt;Clientes_id&lt;/u&gt;" style="ellipse;whiteSpace=wrap;html=1;align=center;" vertex="1" parent="1">
          <mxGeometry x="160" y="40" width="100" height="40" as="geometry" />
        </mxCell>
        <mxCell id="ACXmvU2Bllc4FX8nDeVv-4" value="Nombre" style="ellipse;whiteSpace=wrap;html=1;align=center;" vertex="1" parent="1">
          <mxGeometry x="40" y="50" width="100" height="40" as="geometry" />
        </mxCell>
        <mxCell id="ACXmvU2Bllc4FX8nDeVv-6" value="&lt;span style=&quot;border-bottom: 1px dotted&quot;&gt;Apellido&lt;/span&gt;" style="ellipse;whiteSpace=wrap;html=1;align=center;" vertex="1" parent="1">
          <mxGeometry x="40" y="130" width="100" height="40" as="geometry" />
        </mxCell>
        <mxCell id="ACXmvU2Bllc4FX8nDeVv-7" value="Teléfono" style="ellipse;whiteSpace=wrap;html=1;align=center;" vertex="1" parent="1">
          <mxGeometry x="40" y="210" width="100" height="40" as="geometry" />
        </mxCell>
        <mxCell id="ACXmvU2Bllc4FX8nDeVv-8" value="Dirección" style="ellipse;whiteSpace=wrap;html=1;align=center;" vertex="1" parent="1">
          <mxGeometry x="160" y="220" width="100" height="40" as="geometry" />
        </mxCell>
        <mxCell id="ACXmvU2Bllc4FX8nDeVv-9" value="" style="endArrow=none;html=1;rounded=0;entryX=0.5;entryY=1;entryDx=0;entryDy=0;exitX=0.5;exitY=0;exitDx=0;exitDy=0;" edge="1" parent="1" source="ACXmvU2Bllc4FX8nDeVv-2" target="ACXmvU2Bllc4FX8nDeVv-3">
          <mxGeometry width="50" height="50" relative="1" as="geometry">
            <mxPoint x="220" y="110" as="sourcePoint" />
            <mxPoint x="260" y="80" as="targetPoint" />
          </mxGeometry>
        </mxCell>
        <mxCell id="ACXmvU2Bllc4FX8nDeVv-10" value="" style="endArrow=none;html=1;rounded=0;entryX=0.5;entryY=1;entryDx=0;entryDy=0;exitX=0.25;exitY=0;exitDx=0;exitDy=0;" edge="1" parent="1" source="ACXmvU2Bllc4FX8nDeVv-2" target="ACXmvU2Bllc4FX8nDeVv-4">
          <mxGeometry width="50" height="50" relative="1" as="geometry">
            <mxPoint x="120" y="130" as="sourcePoint" />
            <mxPoint x="170" y="80" as="targetPoint" />
            <Array as="points">
              <mxPoint x="185" y="110" />
              <mxPoint x="90" y="110" />
            </Array>
          </mxGeometry>
        </mxCell>
        <mxCell id="ACXmvU2Bllc4FX8nDeVv-12" value="" style="endArrow=none;html=1;rounded=0;exitX=1;exitY=0.5;exitDx=0;exitDy=0;entryX=0;entryY=0.5;entryDx=0;entryDy=0;" edge="1" parent="1" source="ACXmvU2Bllc4FX8nDeVv-6" target="ACXmvU2Bllc4FX8nDeVv-2">
          <mxGeometry width="50" height="50" relative="1" as="geometry">
            <mxPoint x="170" y="170" as="sourcePoint" />
            <mxPoint x="220" y="120" as="targetPoint" />
          </mxGeometry>
        </mxCell>
        <mxCell id="ACXmvU2Bllc4FX8nDeVv-14" value="" style="endArrow=none;html=1;rounded=0;entryX=0.25;entryY=1;entryDx=0;entryDy=0;exitX=0.5;exitY=0;exitDx=0;exitDy=0;" edge="1" parent="1" source="ACXmvU2Bllc4FX8nDeVv-7" target="ACXmvU2Bllc4FX8nDeVv-2">
          <mxGeometry width="50" height="50" relative="1" as="geometry">
            <mxPoint x="150" y="250" as="sourcePoint" />
            <mxPoint x="200" y="200" as="targetPoint" />
            <Array as="points">
              <mxPoint x="90" y="190" />
              <mxPoint x="185" y="190" />
            </Array>
          </mxGeometry>
        </mxCell>
        <mxCell id="ACXmvU2Bllc4FX8nDeVv-15" value="" style="endArrow=none;html=1;rounded=0;entryX=0.5;entryY=1;entryDx=0;entryDy=0;exitX=0.5;exitY=0;exitDx=0;exitDy=0;" edge="1" parent="1" source="ACXmvU2Bllc4FX8nDeVv-8" target="ACXmvU2Bllc4FX8nDeVv-2">
          <mxGeometry width="50" height="50" relative="1" as="geometry">
            <mxPoint x="230" y="200" as="sourcePoint" />
            <mxPoint x="250" y="190" as="targetPoint" />
          </mxGeometry>
        </mxCell>
        <mxCell id="ACXmvU2Bllc4FX8nDeVv-17" value="Pedidos" style="rounded=1;arcSize=10;whiteSpace=wrap;html=1;align=center;" vertex="1" parent="1">
          <mxGeometry x="590" y="130" width="100" height="40" as="geometry" />
        </mxCell>
        <mxCell id="ACXmvU2Bllc4FX8nDeVv-18" value="&lt;u&gt;Pedido_id&lt;/u&gt;" style="ellipse;whiteSpace=wrap;html=1;align=center;" vertex="1" parent="1">
          <mxGeometry x="720" y="130" width="100" height="40" as="geometry" />
        </mxCell>
        <mxCell id="ACXmvU2Bllc4FX8nDeVv-20" value="Cliente_id" style="ellipse;whiteSpace=wrap;html=1;align=center;" vertex="1" parent="1">
          <mxGeometry x="460" y="130" width="100" height="40" as="geometry" />
        </mxCell>
        <mxCell id="ACXmvU2Bllc4FX8nDeVv-24" value="" style="endArrow=none;html=1;rounded=0;exitX=1;exitY=0.5;exitDx=0;exitDy=0;entryX=0;entryY=0.5;entryDx=0;entryDy=0;" edge="1" parent="1" source="ACXmvU2Bllc4FX8nDeVv-20" target="ACXmvU2Bllc4FX8nDeVv-17">
          <mxGeometry width="50" height="50" relative="1" as="geometry">
            <mxPoint x="610" y="190" as="sourcePoint" />
            <mxPoint x="660" y="140" as="targetPoint" />
          </mxGeometry>
        </mxCell>
        <mxCell id="ACXmvU2Bllc4FX8nDeVv-26" value="" style="endArrow=none;html=1;rounded=0;entryX=0.75;entryY=0;entryDx=0;entryDy=0;exitX=0.5;exitY=1;exitDx=0;exitDy=0;" edge="1" parent="1" source="ACXmvU2Bllc4FX8nDeVv-27" target="ACXmvU2Bllc4FX8nDeVv-17">
          <mxGeometry width="50" height="50" relative="1" as="geometry">
            <mxPoint x="740" y="150" as="sourcePoint" />
            <mxPoint x="760" y="170" as="targetPoint" />
            <Array as="points">
              <mxPoint x="770" y="110" />
              <mxPoint x="665" y="110" />
            </Array>
          </mxGeometry>
        </mxCell>
        <mxCell id="ACXmvU2Bllc4FX8nDeVv-27" value="Fecha_pedido" style="ellipse;whiteSpace=wrap;html=1;align=center;" vertex="1" parent="1">
          <mxGeometry x="720" y="50" width="100" height="40" as="geometry" />
        </mxCell>
        <mxCell id="ACXmvU2Bllc4FX8nDeVv-29" value="Total" style="ellipse;whiteSpace=wrap;html=1;align=center;" vertex="1" parent="1">
          <mxGeometry x="590" y="40" width="100" height="40" as="geometry" />
        </mxCell>
        <mxCell id="ACXmvU2Bllc4FX8nDeVv-30" value="" style="endArrow=none;html=1;rounded=0;exitX=0.75;exitY=1;exitDx=0;exitDy=0;entryX=0.5;entryY=0;entryDx=0;entryDy=0;" edge="1" parent="1" source="ACXmvU2Bllc4FX8nDeVv-17" target="ACXmvU2Bllc4FX8nDeVv-31">
          <mxGeometry width="50" height="50" relative="1" as="geometry">
            <mxPoint x="710" y="290" as="sourcePoint" />
            <mxPoint x="670" y="200" as="targetPoint" />
            <Array as="points">
              <mxPoint x="665" y="190" />
              <mxPoint x="770" y="190" />
            </Array>
          </mxGeometry>
        </mxCell>
        <mxCell id="ACXmvU2Bllc4FX8nDeVv-31" value="Estado&lt;span style=&quot;white-space: pre;&quot;&gt;&#x9;&lt;/span&gt;" style="ellipse;whiteSpace=wrap;html=1;align=center;" vertex="1" parent="1">
          <mxGeometry x="720" y="210" width="100" height="40" as="geometry" />
        </mxCell>
        <mxCell id="ACXmvU2Bllc4FX8nDeVv-32" value="" style="edgeStyle=entityRelationEdgeStyle;fontSize=12;html=1;endArrow=ERoneToMany;rounded=0;exitX=1;exitY=0.5;exitDx=0;exitDy=0;entryX=0;entryY=0.5;entryDx=0;entryDy=0;startArrow=ERone;startFill=0;" edge="1" parent="1" source="ACXmvU2Bllc4FX8nDeVv-2" target="ACXmvU2Bllc4FX8nDeVv-20">
          <mxGeometry width="100" height="100" relative="1" as="geometry">
            <mxPoint x="310" y="280" as="sourcePoint" />
            <mxPoint x="410" y="180" as="targetPoint" />
          </mxGeometry>
        </mxCell>
        <mxCell id="ACXmvU2Bllc4FX8nDeVv-33" value="" style="endArrow=none;html=1;rounded=0;exitX=1;exitY=0.5;exitDx=0;exitDy=0;entryX=0;entryY=0.5;entryDx=0;entryDy=0;" edge="1" parent="1" source="ACXmvU2Bllc4FX8nDeVv-17" target="ACXmvU2Bllc4FX8nDeVv-18">
          <mxGeometry width="50" height="50" relative="1" as="geometry">
            <mxPoint x="700" y="160" as="sourcePoint" />
            <mxPoint x="740" y="150" as="targetPoint" />
          </mxGeometry>
        </mxCell>
        <mxCell id="ACXmvU2Bllc4FX8nDeVv-34" value="" style="endArrow=none;html=1;rounded=0;entryX=0.5;entryY=1;entryDx=0;entryDy=0;exitX=0.5;exitY=0;exitDx=0;exitDy=0;" edge="1" parent="1" source="ACXmvU2Bllc4FX8nDeVv-17" target="ACXmvU2Bllc4FX8nDeVv-29">
          <mxGeometry width="50" height="50" relative="1" as="geometry">
            <mxPoint x="610" y="330" as="sourcePoint" />
            <mxPoint x="660" y="280" as="targetPoint" />
          </mxGeometry>
        </mxCell>
        <mxCell id="ACXmvU2Bllc4FX8nDeVv-35" value="" style="endArrow=none;html=1;rounded=0;entryX=0.5;entryY=1;entryDx=0;entryDy=0;exitX=0.5;exitY=0;exitDx=0;exitDy=0;" edge="1" parent="1" source="ACXmvU2Bllc4FX8nDeVv-36" target="ACXmvU2Bllc4FX8nDeVv-17">
          <mxGeometry width="50" height="50" relative="1" as="geometry">
            <mxPoint x="640" y="250" as="sourcePoint" />
            <mxPoint x="690" y="320" as="targetPoint" />
          </mxGeometry>
        </mxCell>
        <mxCell id="ACXmvU2Bllc4FX8nDeVv-36" value="Empleado_id" style="ellipse;whiteSpace=wrap;html=1;align=center;" vertex="1" parent="1">
          <mxGeometry x="590" y="220" width="100" height="40" as="geometry" />
        </mxCell>
        <mxCell id="ACXmvU2Bllc4FX8nDeVv-39" value="Empleados" style="rounded=1;arcSize=10;whiteSpace=wrap;html=1;align=center;" vertex="1" parent="1">
          <mxGeometry x="590" y="430" width="100" height="40" as="geometry" />
        </mxCell>
        <mxCell id="ACXmvU2Bllc4FX8nDeVv-44" value="" style="endArrow=ERone;html=1;rounded=0;entryX=0.5;entryY=0;entryDx=0;entryDy=0;exitX=0.5;exitY=1;exitDx=0;exitDy=0;startArrow=ERmany;startFill=0;endFill=0;" edge="1" parent="1" source="ACXmvU2Bllc4FX8nDeVv-36" target="ACXmvU2Bllc4FX8nDeVv-39">
          <mxGeometry width="50" height="50" relative="1" as="geometry">
            <mxPoint x="680" y="350" as="sourcePoint" />
            <mxPoint x="630" y="400" as="targetPoint" />
          </mxGeometry>
        </mxCell>
        <mxCell id="ACXmvU2Bllc4FX8nDeVv-46" value="Nombre" style="ellipse;whiteSpace=wrap;html=1;align=center;" vertex="1" parent="1">
          <mxGeometry x="470" y="510" width="100" height="40" as="geometry" />
        </mxCell>
        <mxCell id="ACXmvU2Bllc4FX8nDeVv-47" value="&lt;u&gt;Empleado_id&lt;/u&gt;" style="ellipse;whiteSpace=wrap;html=1;align=center;" vertex="1" parent="1">
          <mxGeometry x="460" y="430" width="100" height="40" as="geometry" />
        </mxCell>
        <mxCell id="ACXmvU2Bllc4FX8nDeVv-48" value="" style="endArrow=none;html=1;rounded=0;entryX=0;entryY=0.5;entryDx=0;entryDy=0;exitX=1;exitY=0.5;exitDx=0;exitDy=0;" edge="1" parent="1" source="ACXmvU2Bllc4FX8nDeVv-47" target="ACXmvU2Bllc4FX8nDeVv-39">
          <mxGeometry width="50" height="50" relative="1" as="geometry">
            <mxPoint x="340" y="490" as="sourcePoint" />
            <mxPoint x="390" y="440" as="targetPoint" />
          </mxGeometry>
        </mxCell>
        <mxCell id="ACXmvU2Bllc4FX8nDeVv-50" value="" style="endArrow=none;html=1;rounded=0;entryX=0.348;entryY=1.028;entryDx=0;entryDy=0;exitX=0.5;exitY=0;exitDx=0;exitDy=0;entryPerimeter=0;" edge="1" parent="1" source="ACXmvU2Bllc4FX8nDeVv-51" target="ACXmvU2Bllc4FX8nDeVv-39">
          <mxGeometry width="50" height="50" relative="1" as="geometry">
            <mxPoint x="400" y="450" as="sourcePoint" />
            <mxPoint x="450" y="400" as="targetPoint" />
            <Array as="points">
              <mxPoint x="590" y="530" />
              <mxPoint x="625" y="530" />
            </Array>
          </mxGeometry>
        </mxCell>
        <mxCell id="ACXmvU2Bllc4FX8nDeVv-51" value="Apellido" style="ellipse;whiteSpace=wrap;html=1;align=center;" vertex="1" parent="1">
          <mxGeometry x="540" y="550" width="100" height="40" as="geometry" />
        </mxCell>
        <mxCell id="ACXmvU2Bllc4FX8nDeVv-52" value="Cargo" style="ellipse;whiteSpace=wrap;html=1;align=center;" vertex="1" parent="1">
          <mxGeometry x="650" y="550" width="100" height="40" as="geometry" />
        </mxCell>
        <mxCell id="ACXmvU2Bllc4FX8nDeVv-53" value="" style="endArrow=none;html=1;rounded=0;exitX=0.5;exitY=0;exitDx=0;exitDy=0;entryX=0.658;entryY=0.981;entryDx=0;entryDy=0;entryPerimeter=0;" edge="1" parent="1" source="ACXmvU2Bllc4FX8nDeVv-52" target="ACXmvU2Bllc4FX8nDeVv-39">
          <mxGeometry width="50" height="50" relative="1" as="geometry">
            <mxPoint x="710" y="550" as="sourcePoint" />
            <mxPoint x="660" y="490" as="targetPoint" />
            <Array as="points">
              <mxPoint x="700" y="530" />
              <mxPoint x="656" y="530" />
            </Array>
          </mxGeometry>
        </mxCell>
        <mxCell id="ACXmvU2Bllc4FX8nDeVv-55" value="&lt;font style=&quot;font-size: 10.7px;&quot;&gt;Fecha_contratacion&lt;/font&gt;" style="ellipse;whiteSpace=wrap;html=1;align=center;" vertex="1" parent="1">
          <mxGeometry x="727" y="510" width="100" height="40" as="geometry" />
        </mxCell>
        <mxCell id="ACXmvU2Bllc4FX8nDeVv-56" value="" style="endArrow=none;html=1;rounded=0;entryX=0.865;entryY=1.028;entryDx=0;entryDy=0;entryPerimeter=0;exitX=0.5;exitY=0;exitDx=0;exitDy=0;" edge="1" parent="1" source="ACXmvU2Bllc4FX8nDeVv-55" target="ACXmvU2Bllc4FX8nDeVv-39">
          <mxGeometry width="50" height="50" relative="1" as="geometry">
            <mxPoint x="740" y="510" as="sourcePoint" />
            <mxPoint x="790" y="460" as="targetPoint" />
            <Array as="points">
              <mxPoint x="777" y="490" />
              <mxPoint x="677" y="490" />
            </Array>
          </mxGeometry>
        </mxCell>
        <mxCell id="ACXmvU2Bllc4FX8nDeVv-57" value="" style="endArrow=none;html=1;rounded=0;exitX=1;exitY=0.5;exitDx=0;exitDy=0;entryX=0;entryY=0.5;entryDx=0;entryDy=0;" edge="1" parent="1" source="ACXmvU2Bllc4FX8nDeVv-39" target="ACXmvU2Bllc4FX8nDeVv-58">
          <mxGeometry width="50" height="50" relative="1" as="geometry">
            <mxPoint x="760" y="470" as="sourcePoint" />
            <mxPoint x="720" y="400" as="targetPoint" />
          </mxGeometry>
        </mxCell>
        <mxCell id="ACXmvU2Bllc4FX8nDeVv-58" value="Salario" style="ellipse;whiteSpace=wrap;html=1;align=center;" vertex="1" parent="1">
          <mxGeometry x="720" y="430" width="100" height="40" as="geometry" />
        </mxCell>
        <mxCell id="ACXmvU2Bllc4FX8nDeVv-59" value="" style="endArrow=none;html=1;rounded=0;exitX=1;exitY=0.5;exitDx=0;exitDy=0;entryX=0;entryY=0.5;entryDx=0;entryDy=0;" edge="1" parent="1" source="ACXmvU2Bllc4FX8nDeVv-67" target="ACXmvU2Bllc4FX8nDeVv-61">
          <mxGeometry width="50" height="50" relative="1" as="geometry">
            <mxPoint x="970" y="170" as="sourcePoint" />
            <mxPoint x="1130" y="150" as="targetPoint" />
          </mxGeometry>
        </mxCell>
        <mxCell id="ACXmvU2Bllc4FX8nDeVv-61" value="Detalles_pedido" style="rounded=1;arcSize=10;whiteSpace=wrap;html=1;align=center;" vertex="1" parent="1">
          <mxGeometry x="1150" y="130" width="100" height="40" as="geometry" />
        </mxCell>
        <mxCell id="ACXmvU2Bllc4FX8nDeVv-62" value="" style="endArrow=none;html=1;rounded=0;exitX=0.5;exitY=0;exitDx=0;exitDy=0;entryX=0.5;entryY=1;entryDx=0;entryDy=0;" edge="1" parent="1" source="ACXmvU2Bllc4FX8nDeVv-61" target="ACXmvU2Bllc4FX8nDeVv-63">
          <mxGeometry width="50" height="50" relative="1" as="geometry">
            <mxPoint x="1210" y="100" as="sourcePoint" />
            <mxPoint x="1180" y="90" as="targetPoint" />
          </mxGeometry>
        </mxCell>
        <mxCell id="ACXmvU2Bllc4FX8nDeVv-63" value="&lt;u&gt;Detalle_id&lt;/u&gt;" style="ellipse;whiteSpace=wrap;html=1;align=center;" vertex="1" parent="1">
          <mxGeometry x="1150" y="40" width="100" height="40" as="geometry" />
        </mxCell>
        <mxCell id="ACXmvU2Bllc4FX8nDeVv-64" value="Producto_id" style="ellipse;whiteSpace=wrap;html=1;align=center;" vertex="1" parent="1">
          <mxGeometry x="1150" y="220" width="100" height="40" as="geometry" />
        </mxCell>
        <mxCell id="ACXmvU2Bllc4FX8nDeVv-65" value="" style="endArrow=none;html=1;rounded=0;exitX=0.5;exitY=0;exitDx=0;exitDy=0;entryX=0.5;entryY=1;entryDx=0;entryDy=0;" edge="1" parent="1" source="ACXmvU2Bllc4FX8nDeVv-64" target="ACXmvU2Bllc4FX8nDeVv-61">
          <mxGeometry width="50" height="50" relative="1" as="geometry">
            <mxPoint x="1280" y="360" as="sourcePoint" />
            <mxPoint x="1180" y="180" as="targetPoint" />
          </mxGeometry>
        </mxCell>
        <mxCell id="ACXmvU2Bllc4FX8nDeVv-66" value="Cantidad" style="ellipse;whiteSpace=wrap;html=1;align=center;" vertex="1" parent="1">
          <mxGeometry x="1290" y="130" width="100" height="40" as="geometry" />
        </mxCell>
        <mxCell id="ACXmvU2Bllc4FX8nDeVv-68" value="" style="endArrow=ERmany;html=1;rounded=0;exitX=1;exitY=0.5;exitDx=0;exitDy=0;entryX=0;entryY=0.5;entryDx=0;entryDy=0;endFill=0;startArrow=ERone;startFill=0;" edge="1" parent="1" source="ACXmvU2Bllc4FX8nDeVv-18" target="ACXmvU2Bllc4FX8nDeVv-67">
          <mxGeometry width="50" height="50" relative="1" as="geometry">
            <mxPoint x="820" y="150" as="sourcePoint" />
            <mxPoint x="1150" y="150" as="targetPoint" />
          </mxGeometry>
        </mxCell>
        <mxCell id="ACXmvU2Bllc4FX8nDeVv-67" value="Pedido_id" style="ellipse;whiteSpace=wrap;html=1;align=center;" vertex="1" parent="1">
          <mxGeometry x="1010" y="130" width="100" height="40" as="geometry" />
        </mxCell>
        <mxCell id="ACXmvU2Bllc4FX8nDeVv-70" value="" style="endArrow=none;html=1;rounded=0;exitX=1;exitY=0.5;exitDx=0;exitDy=0;entryX=0;entryY=0.5;entryDx=0;entryDy=0;" edge="1" parent="1" source="ACXmvU2Bllc4FX8nDeVv-61" target="ACXmvU2Bllc4FX8nDeVv-66">
          <mxGeometry width="50" height="50" relative="1" as="geometry">
            <mxPoint x="1320" y="220" as="sourcePoint" />
            <mxPoint x="1370" y="170" as="targetPoint" />
          </mxGeometry>
        </mxCell>
        <mxCell id="ACXmvU2Bllc4FX8nDeVv-71" value="" style="endArrow=none;html=1;rounded=0;exitX=0.75;exitY=0;exitDx=0;exitDy=0;entryX=0.5;entryY=1;entryDx=0;entryDy=0;" edge="1" parent="1" source="ACXmvU2Bllc4FX8nDeVv-61" target="ACXmvU2Bllc4FX8nDeVv-72">
          <mxGeometry width="50" height="50" relative="1" as="geometry">
            <mxPoint x="1300" y="100" as="sourcePoint" />
            <mxPoint x="1350" y="50" as="targetPoint" />
            <Array as="points">
              <mxPoint x="1225" y="100" />
              <mxPoint x="1340" y="100" />
            </Array>
          </mxGeometry>
        </mxCell>
        <mxCell id="ACXmvU2Bllc4FX8nDeVv-72" value="Precio_unitario" style="ellipse;whiteSpace=wrap;html=1;align=center;" vertex="1" parent="1">
          <mxGeometry x="1290" y="40" width="100" height="40" as="geometry" />
        </mxCell>
        <mxCell id="ACXmvU2Bllc4FX8nDeVv-73" value="Subtotal" style="ellipse;whiteSpace=wrap;html=1;align=center;" vertex="1" parent="1">
          <mxGeometry x="1290" y="220" width="100" height="40" as="geometry" />
        </mxCell>
        <mxCell id="ACXmvU2Bllc4FX8nDeVv-74" value="" style="endArrow=none;html=1;rounded=0;exitX=0.75;exitY=1;exitDx=0;exitDy=0;entryX=0.5;entryY=0;entryDx=0;entryDy=0;" edge="1" parent="1" source="ACXmvU2Bllc4FX8nDeVv-61" target="ACXmvU2Bllc4FX8nDeVv-73">
          <mxGeometry width="50" height="50" relative="1" as="geometry">
            <mxPoint x="1350" y="340" as="sourcePoint" />
            <mxPoint x="1400" y="290" as="targetPoint" />
            <Array as="points">
              <mxPoint x="1225" y="200" />
              <mxPoint x="1340" y="200" />
            </Array>
          </mxGeometry>
        </mxCell>
        <mxCell id="ACXmvU2Bllc4FX8nDeVv-75" value="Productos" style="rounded=1;arcSize=10;whiteSpace=wrap;html=1;align=center;" vertex="1" parent="1">
          <mxGeometry x="1150" y="430" width="100" height="40" as="geometry" />
        </mxCell>
        <mxCell id="ACXmvU2Bllc4FX8nDeVv-76" value="" style="endArrow=ERone;html=1;rounded=0;entryX=0.5;entryY=0;entryDx=0;entryDy=0;exitX=0.5;exitY=1;exitDx=0;exitDy=0;startArrow=ERmany;startFill=0;endFill=0;" edge="1" parent="1" source="ACXmvU2Bllc4FX8nDeVv-64" target="ACXmvU2Bllc4FX8nDeVv-75">
          <mxGeometry width="50" height="50" relative="1" as="geometry">
            <mxPoint x="1240" y="310" as="sourcePoint" />
            <mxPoint x="1190" y="360" as="targetPoint" />
            <Array as="points">
              <mxPoint x="1200" y="350" />
            </Array>
          </mxGeometry>
        </mxCell>
        <mxCell id="ACXmvU2Bllc4FX8nDeVv-77" value="Nombre" style="ellipse;whiteSpace=wrap;html=1;align=center;" vertex="1" parent="1">
          <mxGeometry x="1010" y="430" width="100" height="40" as="geometry" />
        </mxCell>
        <mxCell id="ACXmvU2Bllc4FX8nDeVv-78" value="" style="endArrow=none;html=1;rounded=0;entryX=0;entryY=0.5;entryDx=0;entryDy=0;exitX=1;exitY=0.5;exitDx=0;exitDy=0;" edge="1" parent="1" source="ACXmvU2Bllc4FX8nDeVv-77" target="ACXmvU2Bllc4FX8nDeVv-75">
          <mxGeometry width="50" height="50" relative="1" as="geometry">
            <mxPoint x="860" y="530" as="sourcePoint" />
            <mxPoint x="910" y="480" as="targetPoint" />
          </mxGeometry>
        </mxCell>
        <mxCell id="ACXmvU2Bllc4FX8nDeVv-80" value="Producto_id" style="ellipse;whiteSpace=wrap;html=1;align=center;" vertex="1" parent="1">
          <mxGeometry x="1010" y="510" width="100" height="40" as="geometry" />
        </mxCell>
        <mxCell id="ACXmvU2Bllc4FX8nDeVv-81" value="Descripcion" style="ellipse;whiteSpace=wrap;html=1;align=center;" vertex="1" parent="1">
          <mxGeometry x="1290" y="510" width="100" height="40" as="geometry" />
        </mxCell>
        <mxCell id="ACXmvU2Bllc4FX8nDeVv-84" value="Precio" style="ellipse;whiteSpace=wrap;html=1;align=center;" vertex="1" parent="1">
          <mxGeometry x="1150" y="510" width="100" height="40" as="geometry" />
        </mxCell>
        <mxCell id="ACXmvU2Bllc4FX8nDeVv-85" value="" style="endArrow=none;html=1;rounded=0;exitX=0.5;exitY=0;exitDx=0;exitDy=0;entryX=0;entryY=0.75;entryDx=0;entryDy=0;" edge="1" parent="1" source="ACXmvU2Bllc4FX8nDeVv-80" target="ACXmvU2Bllc4FX8nDeVv-75">
          <mxGeometry width="50" height="50" relative="1" as="geometry">
            <mxPoint x="1090" y="510" as="sourcePoint" />
            <mxPoint x="1140" y="460" as="targetPoint" />
            <Array as="points">
              <mxPoint x="1060" y="490" />
              <mxPoint x="1130" y="490" />
              <mxPoint x="1130" y="460" />
            </Array>
          </mxGeometry>
        </mxCell>
        <mxCell id="ACXmvU2Bllc4FX8nDeVv-86" value="" style="endArrow=none;html=1;rounded=0;entryX=1;entryY=0.75;entryDx=0;entryDy=0;exitX=0.5;exitY=0;exitDx=0;exitDy=0;" edge="1" parent="1" source="ACXmvU2Bllc4FX8nDeVv-81" target="ACXmvU2Bllc4FX8nDeVv-75">
          <mxGeometry width="50" height="50" relative="1" as="geometry">
            <mxPoint x="1310" y="530" as="sourcePoint" />
            <mxPoint x="1360" y="480" as="targetPoint" />
            <Array as="points">
              <mxPoint x="1340" y="490" />
              <mxPoint x="1270" y="490" />
              <mxPoint x="1270" y="460" />
            </Array>
          </mxGeometry>
        </mxCell>
        <mxCell id="ACXmvU2Bllc4FX8nDeVv-87" value="" style="endArrow=none;html=1;rounded=0;entryX=0.5;entryY=1;entryDx=0;entryDy=0;exitX=0.5;exitY=0;exitDx=0;exitDy=0;" edge="1" parent="1" source="ACXmvU2Bllc4FX8nDeVv-84" target="ACXmvU2Bllc4FX8nDeVv-75">
          <mxGeometry width="50" height="50" relative="1" as="geometry">
            <mxPoint x="1240" y="600" as="sourcePoint" />
            <mxPoint x="1290" y="550" as="targetPoint" />
          </mxGeometry>
        </mxCell>
        <mxCell id="ACXmvU2Bllc4FX8nDeVv-88" value="Existencias" style="ellipse;whiteSpace=wrap;html=1;align=center;" vertex="1" parent="1">
          <mxGeometry x="1290" y="430" width="100" height="40" as="geometry" />
        </mxCell>
        <mxCell id="ACXmvU2Bllc4FX8nDeVv-89" value="" style="endArrow=none;html=1;rounded=0;exitX=1;exitY=0.5;exitDx=0;exitDy=0;entryX=0;entryY=0.5;entryDx=0;entryDy=0;" edge="1" parent="1" source="ACXmvU2Bllc4FX8nDeVv-75" target="ACXmvU2Bllc4FX8nDeVv-88">
          <mxGeometry width="50" height="50" relative="1" as="geometry">
            <mxPoint x="1280" y="470" as="sourcePoint" />
            <mxPoint x="1330" y="420" as="targetPoint" />
          </mxGeometry>
        </mxCell>
      </root>
    </mxGraphModel>
  </diagram>
</mxfile>
